<?xml version="1.0" encoding="utf-8"?>
<!-- Generator: Adobe Illustrator 26.0.3, SVG Export Plug-In . SVG Version: 6.00 Build 0)  -->
<svg version="1.1" id="Layer_1" xmlns="http://www.w3.org/2000/svg" xmlns:xlink="http://www.w3.org/1999/xlink" x="0px" y="0px"
	 viewBox="0 0 20 17" style="enable-background:new 0 0 20 17;" xml:space="preserve">
<style type="text/css">
	.st0{fill:#FA7453;}
</style>
<path class="st0" d="M20,2.2c-0.7,0.3-1.5,0.5-2.4,0.6c0.9-0.5,1.5-1.3,1.8-2.3c-0.8,0.5-1.7,0.8-2.6,1c-0.8-0.8-1.9-1.3-3-1.3
	c-2.6,0-4.6,2.5-4,5C6.5,5.1,3.5,3.6,1.4,1C0.3,2.9,0.9,5.3,2.7,6.5C2,6.5,1.4,6.3,0.8,6c0,1.9,1.3,3.7,3.3,4.1
	c-0.6,0.2-1.2,0.2-1.9,0.1c0.5,1.7,2.1,2.8,3.8,2.8c-1.7,1.3-3.9,2-6.1,1.7c1.9,1.2,4.1,1.8,6.3,1.8c7.6,0,11.9-6.4,11.7-12.2
	C18.8,3.7,19.4,3,20,2.2z"/>
</svg>
