<?xml version="1.0" encoding="utf-8"?>
<!-- Generator: Adobe Illustrator 26.0.3, SVG Export Plug-In . SVG Version: 6.00 Build 0)  -->
<svg version="1.1" id="Layer_1" xmlns="http://www.w3.org/2000/svg" xmlns:xlink="http://www.w3.org/1999/xlink" x="0px" y="0px"
	 viewBox="0 0 20 20" style="enable-background:new 0 0 20 20;" xml:space="preserve">
<style type="text/css">
	.st0{fill:#FA7453;}
</style>
<path class="st0" d="M10,1.8c2.7,0,3,0,4,0.1C16.8,2,18,3.3,18.1,6c0,1.1,0.1,1.4,0.1,4c0,2.7,0,3-0.1,4c-0.1,2.7-1.4,4-4.1,4.1
	c-1.1,0-1.4,0.1-4,0.1c-2.7,0-3,0-4-0.1C3.2,18,2,16.7,1.9,14c0-1.1-0.1-1.4-0.1-4c0-2.7,0-3,0.1-4C2,3.3,3.2,2,6,1.9
	C7,1.8,7.3,1.8,10,1.8z M10,0C7.3,0,6.9,0,5.9,0.1C2.2,0.2,0.2,2.2,0.1,5.9C0,6.9,0,7.3,0,10s0,3.1,0.1,4.1c0.2,3.6,2.2,5.7,5.8,5.8
	C6.9,20,7.3,20,10,20s3.1,0,4.1-0.1c3.6-0.2,5.7-2.2,5.8-5.8c0-1.1,0.1-1.4,0.1-4.1s0-3.1-0.1-4.1c-0.2-3.6-2.2-5.7-5.8-5.8
	C13.1,0,12.7,0,10,0z M10,4.9c-2.8,0-5.1,2.3-5.1,5.1s2.3,5.1,5.1,5.1s5.1-2.3,5.1-5.1S12.8,4.9,10,4.9z M10,13.3
	c-1.8,0-3.3-1.5-3.3-3.3S8.2,6.7,10,6.7s3.3,1.5,3.3,3.3S11.8,13.3,10,13.3L10,13.3z M15.3,3.5c-0.7,0-1.2,0.5-1.2,1.2
	s0.5,1.2,1.2,1.2c0.7,0,1.2-0.5,1.2-1.2S16,3.5,15.3,3.5L15.3,3.5z"/>
</svg>
