<?xml version="1.0" encoding="utf-8"?>
<!-- Generator: Adobe Illustrator 26.0.3, SVG Export Plug-In . SVG Version: 6.00 Build 0)  -->
<svg version="1.1" id="Layer_1" xmlns="http://www.w3.org/2000/svg" xmlns:xlink="http://www.w3.org/1999/xlink" x="0px" y="0px"
	 viewBox="0 0 20 20" style="enable-background:new 0 0 20 20;" xml:space="preserve">
<style type="text/css">
	.st0{fill:#FA7453;}
</style>
<path class="st0" d="M18.9,0H1.1C0.5,0,0,0.5,0,1.1v17.8C0,19.5,0.5,20,1.1,20h9.6v-7.7H8.1v-3h2.6V7c0-2.6,1.6-4,3.9-4
	c1.1,0,2.1,0.1,2.3,0.1v2.7h-1.6c-1.3,0-1.5,0.6-1.5,1.5v1.9h3l-0.4,3h-2.6V20h5.1c0.6,0,1.1-0.5,1.1-1.1V1.1C20,0.5,19.5,0,18.9,0z
	"/>
</svg>
